<?xml version="1.0" standalone="no"?>
<!DOCTYPE svg PUBLIC "-//W3C//DTD SVG 20010904//EN"
 "http://www.w3.org/TR/2001/REC-SVG-20010904/DTD/svg10.dtd">
<svg version="1.0" xmlns="http://www.w3.org/2000/svg"
 width="409.000000pt" height="279.000000pt" viewBox="0 0 409.000000 279.000000"
 preserveAspectRatio="xMidYMid meet">
<metadata>
Created by potrace 1.16, written by Peter Selinger 2001-2019
</metadata>
<g transform="translate(0.000000,279.000000) scale(0.100000,-0.100000)"
fill="#000000" stroke="none">
<path d="M2020 2520 c-353 -38 -667 -249 -847 -570 -176 -311 -177 -730 -3
-1046 44 -82 60 -104 127 -185 156 -187 356 -311 600 -371 116 -28 359 -31
473 -4 211 48 379 138 530 282 176 169 286 371 331 614 16 87 16 278 0 370
-78 439 -411 789 -846 890 -96 22 -262 31 -365 20z m275 -185 c118 -23 154
-35 270 -92 190 -94 359 -286 437 -498 45 -120 53 -172 52 -325 0 -171 -18
-252 -89 -397 -132 -268 -383 -456 -675 -504 -432 -71 -863 178 -1012 586 -47
128 -53 163 -53 320 0 191 14 253 97 421 78 159 230 315 384 393 198 100 397
132 589 96z"/>
<path d="M2043 2282 c-21 -7 -21 -8 15 -77 l37 -70 45 0 44 0 37 70 36 70 -26
6 c-34 9 -160 9 -188 1z"/>
<path d="M1935 2265 c-5 -2 -35 -11 -65 -20 -246 -76 -455 -282 -547 -539 -57
-162 -57 -398 0 -562 49 -137 157 -290 268 -380 168 -136 333 -194 549 -194
230 0 423 75 591 231 107 99 207 268 245 414 26 99 26 323 0 420 -84 314 -327
557 -628 629 -26 6 -30 2 -68 -74 -42 -84 -46 -105 -30 -173 5 -23 21 -105 36
-182 14 -77 32 -171 39 -210 7 -38 23 -122 35 -185 12 -63 28 -146 35 -185 38
-192 46 -248 41 -268 -3 -12 -36 -47 -73 -77 -38 -30 -77 -62 -88 -72 -87 -72
-122 -98 -134 -98 -12 0 -66 35 -97 65 -6 5 -53 44 -103 85 -52 42 -94 84 -98
98 -5 22 8 100 72 432 14 74 30 158 35 185 5 28 21 111 35 185 30 156 44 231
52 281 4 28 -3 52 -36 117 -23 45 -45 82 -49 81 -4 0 -11 -2 -17 -4z"/>
<path d="M2101 2058 c-11 -27 -33 -135 -66 -323 -9 -49 -20 -108 -25 -130 -5
-22 -16 -80 -25 -130 -28 -150 -65 -348 -75 -392 -18 -75 -17 -77 105 -178 63
-52 119 -95 125 -95 18 0 240 191 240 207 0 8 -4 33 -10 56 -5 23 -20 101 -34
172 -34 184 -65 349 -81 430 -7 39 -21 111 -30 160 -29 159 -43 223 -49 234
-4 6 -21 11 -37 11 -21 0 -32 -6 -38 -22z"/>
<path d="M402 2338 c-7 -8 -12 -152 -14 -398 l-3 -385 23 -33 c99 -138 332
-133 412 10 l23 41 -6 371 c-3 204 -8 379 -12 389 -5 11 -16 17 -29 15 -21 -3
-21 -3 -17 -305 l4 -302 -26 -6 c-14 -4 -31 -4 -36 0 -7 4 -11 101 -11 288 0
155 -3 292 -6 305 -5 16 -13 22 -28 20 -21 -3 -21 -7 -26 -308 l-5 -305 -32
-3 -33 -3 -2 302 c-3 269 -5 303 -20 312 -12 8 -21 7 -32 -2 -14 -12 -16 -52
-16 -312 l0 -299 -27 6 c-16 4 -32 10 -36 14 -4 4 -4 135 1 291 9 281 7 309
-23 309 -7 0 -17 -6 -23 -12z"/>
<path d="M3655 2234 c-53 -66 -87 -129 -103 -194 -7 -27 -13 -185 -15 -398 -4
-408 -14 -375 106 -370 l72 3 3 499 c1 283 -2 504 -7 509 -5 5 -28 -15 -56
-49z"/>
<path d="M586 1388 c-4 -12 -18 -422 -32 -931 -6 -210 -5 -229 11 -247 26 -29
80 -27 100 3 13 20 14 59 5 308 -5 156 -13 412 -16 569 -4 161 -11 290 -17
298 -5 6 -18 12 -29 12 -10 0 -20 -6 -22 -12z"/>
<path d="M3636 1208 c-5 -17 -22 -327 -37 -685 -12 -260 -11 -283 4 -307 22
-33 75 -36 102 -6 17 19 18 35 6 323 -14 349 -30 656 -36 675 -2 6 -11 12 -20
12 -9 0 -17 -6 -19 -12z"/>
</g>
</svg>
